<svg width="16" height="16" viewBox="0 0 16 16" fill="none" xmlns="http://www.w3.org/2000/svg">
<path d="M8.07445 14.0835H6.68556V4.52461H8.07445V14.0835ZM5.68556 12.7557H4.29667V5.85294H5.68556V12.7557ZM10.4633 12.7557H9.07445V6.3835H10.4633V12.7557ZM3.29612 11.4279H1.90723V7.18016H3.29612V11.4279ZM12.8545 11.4279H11.4656V7.71127H12.8545V11.4279ZM12.0317 1.45572C12.0588 2.03977 12.303 2.59266 12.7164 3.00615C13.1298 3.41963 13.6826 3.66395 14.2667 3.69127L14.3889 3.69461V4.52794C14.0784 4.52647 13.7707 4.58654 13.4836 4.70467C13.1965 4.82281 12.9356 4.99667 12.7161 5.21621C12.4965 5.43576 12.3227 5.69663 12.2045 5.98376C12.0864 6.27088 12.0263 6.57857 12.0278 6.88905H11.1944L11.1911 6.76683C11.1625 6.16168 10.9012 5.59097 10.4619 5.17381C10.0226 4.75664 9.43916 4.52526 8.83334 4.52794V3.69461L8.95556 3.69127C9.56071 3.66264 10.1314 3.4014 10.5486 2.96208C10.9657 2.52277 11.1971 1.93932 11.1944 1.3335H12.0278L12.0317 1.45572Z" fill="#525150"/>
</svg>
